<svg width="399" height="102" viewBox="0 0 399 102" fill="none" xmlns="http://www.w3.org/2000/svg">
<path fill-rule="evenodd" clip-rule="evenodd" d="M0 0H399V102H0V0ZM300 6H393V96H300V6ZM22.41 63.352C23.826 63.952 25.41 64.252 27.162 64.252C29.01 64.252 30.606 63.916 31.95 63.244C33.294 62.548 34.314 61.624 35.01 60.472C35.706 59.32 36.054 58.072 36.054 56.728C36.054 55.168 35.682 53.908 34.938 52.948C34.194 51.988 33.306 51.268 32.274 50.788C31.242 50.308 29.91 49.828 28.278 49.348C27.078 48.988 26.142 48.676 25.47 48.412C24.822 48.124 24.27 47.764 23.814 47.332C23.382 46.876 23.166 46.312 23.166 45.64C23.166 44.68 23.454 43.948 24.03 43.444C24.63 42.94 25.422 42.688 26.406 42.688C27.534 42.688 28.434 42.976 29.106 43.552C29.802 44.104 30.174 44.812 30.222 45.676H35.766C35.598 43.42 34.698 41.668 33.066 40.42C31.458 39.148 29.358 38.512 26.766 38.512C25.038 38.512 23.502 38.812 22.158 39.412C20.814 39.988 19.77 40.828 19.026 41.932C18.282 43.036 17.91 44.332 17.91 45.82C17.91 47.404 18.27 48.676 18.99 49.636C19.734 50.572 20.61 51.28 21.618 51.76C22.65 52.216 23.982 52.684 25.614 53.164C26.814 53.5 27.75 53.812 28.422 54.1C29.118 54.364 29.694 54.736 30.15 55.216C30.606 55.696 30.834 56.308 30.834 57.052C30.834 57.964 30.498 58.708 29.826 59.284C29.154 59.836 28.23 60.112 27.054 60.112C25.902 60.112 24.99 59.812 24.318 59.212C23.67 58.612 23.31 57.796 23.238 56.764H17.838C17.862 58.3 18.282 59.632 19.098 60.76C19.914 61.888 21.018 62.752 22.41 63.352ZM67.8195 64V38.872H62.1315L54.1395 57.556L46.1475 38.872H40.4235V64H45.4635V47.656L52.2315 64H56.0475L62.7795 47.656V64H67.8195ZM76.5464 64L78.2024 59.212H88.2104L89.8664 64H95.1944L86.1584 38.836H80.2904L71.2544 64H76.5464ZM83.2064 44.668L86.8424 55.18H79.5704L83.2064 44.668ZM105.988 54.208L111.532 64H117.364L111.352 53.812C113.248 53.308 114.676 52.396 115.636 51.076C116.596 49.732 117.076 48.232 117.076 46.576C117.076 45.136 116.728 43.84 116.032 42.688C115.36 41.512 114.34 40.588 112.972 39.916C111.604 39.22 109.948 38.872 108.004 38.872H98.5719V64H103.612V54.208H105.988ZM107.824 50.428H103.612V43.048H107.824C109.192 43.048 110.212 43.372 110.884 44.02C111.556 44.644 111.892 45.532 111.892 46.684C111.892 47.86 111.556 48.784 110.884 49.456C110.212 50.104 109.192 50.428 107.824 50.428ZM138.734 42.94V38.872H120.302V42.94H126.998V64H132.038V42.94H138.734ZM146.156 64L147.812 59.212H157.82L159.476 64H164.804L155.768 38.836H149.9L140.864 64H146.156ZM152.816 44.668L156.452 55.18H149.18L152.816 44.668ZM168.613 44.776C167.509 46.72 166.957 48.928 166.957 51.4C166.957 53.872 167.509 56.08 168.613 58.024C169.741 59.968 171.265 61.492 173.185 62.596C175.129 63.676 177.301 64.216 179.701 64.216C182.533 64.216 184.993 63.508 187.081 62.092C189.193 60.652 190.669 58.648 191.509 56.08H185.713C185.137 57.28 184.321 58.192 183.265 58.816C182.233 59.416 181.033 59.716 179.665 59.716C178.201 59.716 176.893 59.38 175.741 58.708C174.613 58.012 173.725 57.04 173.077 55.792C172.453 54.52 172.141 53.056 172.141 51.4C172.141 49.72 172.453 48.256 173.077 47.008C173.725 45.76 174.613 44.8 175.741 44.128C176.893 43.432 178.201 43.084 179.665 43.084C181.033 43.084 182.233 43.384 183.265 43.984C184.321 44.584 185.137 45.484 185.713 46.684H191.509C190.669 44.14 189.193 42.148 187.081 40.708C184.969 39.268 182.509 38.548 179.701 38.548C177.301 38.548 175.129 39.1 173.185 40.204C171.265 41.284 169.741 42.808 168.613 44.776ZM196.246 44.776C195.142 46.72 194.59 48.928 194.59 51.4C194.59 53.872 195.142 56.08 196.246 58.024C197.374 59.968 198.898 61.492 200.818 62.596C202.762 63.676 204.934 64.216 207.334 64.216C210.166 64.216 212.626 63.508 214.714 62.092C216.826 60.652 218.302 58.648 219.142 56.08H213.346C212.77 57.28 211.954 58.192 210.898 58.816C209.866 59.416 208.666 59.716 207.298 59.716C205.834 59.716 204.526 59.38 203.374 58.708C202.246 58.012 201.358 57.04 200.71 55.792C200.086 54.52 199.774 53.056 199.774 51.4C199.774 49.72 200.086 48.256 200.71 47.008C201.358 45.76 202.246 44.8 203.374 44.128C204.526 43.432 205.834 43.084 207.298 43.084C208.666 43.084 209.866 43.384 210.898 43.984C211.954 44.584 212.77 45.484 213.346 46.684H219.142C218.302 44.14 216.826 42.148 214.714 40.708C212.602 39.268 210.142 38.548 207.334 38.548C204.934 38.548 202.762 39.1 200.818 40.204C198.898 41.284 197.374 42.808 196.246 44.776ZM228.487 49.24V42.94H238.027V38.836H223.447V64H238.027V59.896H228.487V53.236H236.947V49.24H228.487ZM246.531 63.352C247.947 63.952 249.531 64.252 251.283 64.252C253.131 64.252 254.727 63.916 256.071 63.244C257.415 62.548 258.435 61.624 259.131 60.472C259.827 59.32 260.175 58.072 260.175 56.728C260.175 55.168 259.803 53.908 259.059 52.948C258.315 51.988 257.427 51.268 256.395 50.788C255.363 50.308 254.031 49.828 252.399 49.348C251.199 48.988 250.263 48.676 249.591 48.412C248.943 48.124 248.391 47.764 247.935 47.332C247.503 46.876 247.287 46.312 247.287 45.64C247.287 44.68 247.575 43.948 248.151 43.444C248.751 42.94 249.543 42.688 250.527 42.688C251.655 42.688 252.555 42.976 253.227 43.552C253.923 44.104 254.295 44.812 254.343 45.676H259.887C259.719 43.42 258.819 41.668 257.187 40.42C255.579 39.148 253.479 38.512 250.887 38.512C249.159 38.512 247.623 38.812 246.279 39.412C244.935 39.988 243.891 40.828 243.147 41.932C242.403 43.036 242.031 44.332 242.031 45.82C242.031 47.404 242.391 48.676 243.111 49.636C243.855 50.572 244.731 51.28 245.739 51.76C246.771 52.216 248.103 52.684 249.735 53.164C250.935 53.5 251.871 53.812 252.543 54.1C253.239 54.364 253.815 54.736 254.271 55.216C254.727 55.696 254.955 56.308 254.955 57.052C254.955 57.964 254.619 58.708 253.947 59.284C253.275 59.836 252.351 60.112 251.175 60.112C250.023 60.112 249.111 59.812 248.439 59.212C247.791 58.612 247.431 57.796 247.359 56.764H241.959C241.983 58.3 242.403 59.632 243.219 60.76C244.035 61.888 245.139 62.752 246.531 63.352ZM268.469 63.352C269.885 63.952 271.469 64.252 273.221 64.252C275.069 64.252 276.665 63.916 278.009 63.244C279.353 62.548 280.373 61.624 281.069 60.472C281.765 59.32 282.113 58.072 282.113 56.728C282.113 55.168 281.741 53.908 280.997 52.948C280.253 51.988 279.365 51.268 278.333 50.788C277.301 50.308 275.969 49.828 274.337 49.348C273.137 48.988 272.201 48.676 271.529 48.412C270.881 48.124 270.329 47.764 269.873 47.332C269.441 46.876 269.225 46.312 269.225 45.64C269.225 44.68 269.513 43.948 270.089 43.444C270.689 42.94 271.481 42.688 272.465 42.688C273.593 42.688 274.493 42.976 275.165 43.552C275.861 44.104 276.233 44.812 276.281 45.676H281.825C281.657 43.42 280.757 41.668 279.125 40.42C277.517 39.148 275.417 38.512 272.825 38.512C271.097 38.512 269.561 38.812 268.217 39.412C266.873 39.988 265.829 40.828 265.085 41.932C264.341 43.036 263.969 44.332 263.969 45.82C263.969 47.404 264.329 48.676 265.049 49.636C265.793 50.572 266.669 51.28 267.677 51.76C268.709 52.216 270.041 52.684 271.673 53.164C272.873 53.5 273.809 53.812 274.481 54.1C275.177 54.364 275.753 54.736 276.209 55.216C276.665 55.696 276.893 56.308 276.893 57.052C276.893 57.964 276.557 58.708 275.885 59.284C275.213 59.836 274.289 60.112 273.113 60.112C271.961 60.112 271.049 59.812 270.377 59.212C269.729 58.612 269.369 57.796 269.297 56.764H263.897C263.921 58.3 264.341 59.632 265.157 60.76C265.973 61.888 267.077 62.752 268.469 63.352Z" fill="#FF0000"/>
<path d="M328.333 42V52H335.667C343 52 343 52 343 48C343 42.2667 339.667 36.4 335 34C328.733 30.8 328.333 31.2 328.333 42Z" fill="#FF0000"/>
<path d="M357.4 34.1333C353 36.5333 349.667 42.4 349.667 48C349.667 52 349.667 52 357 52H364.333V42C364.333 31.2 363.8 30.5333 357.4 34.1333Z" fill="#FF0000"/>
<path d="M328.333 60.6667V68H335.667H343V60.6667V53.3333H335.667H328.333V60.6667Z" fill="#FF0000"/>
<path d="M349.667 60.6667V68H357H364.333V60.6667V53.3333H357H349.667V60.6667Z" fill="#FF0000"/>
<rect x="367" y="27" width="4" height="48" fill="#FF0000"/>
<rect x="322" y="27" width="4" height="48" fill="#FF0000"/>
</svg>
