<?xml version="1.0" encoding="UTF-8"?>
<svg id="_Слой_1" data-name="Слой 1" xmlns="http://www.w3.org/2000/svg" viewBox="0 0 225 247">
  <defs>
    <style>
      .cls-1 {
        fill: #242537;
      }

      .cls-1, .cls-2 {
        stroke-width: 0px;
      }

      .cls-2 {
        fill: #2e7ce4;
      }
    </style>
  </defs>
  <rect class="cls-2" x="23.24" y="48.85" width="171.15" height="167.97" rx="31.79" ry="31.79"/>
  <path class="cls-1" d="m31.01,247c-4.13-1.44-8.53-2.37-12.35-4.4-12.93-6.9-19.32-22.44-15.49-36.66,3.86-14.33,17.01-24.49,31.68-24.07,3.86.11,7.72,1.22,11.53,2.06,1.12.25,1.82.51,2.64-.6,12.32-16.47,24.68-32.91,37.14-49.5-3.76-4.65-6.43-9.79-7.54-15.67-.07-.38-.7-.77-1.14-.93-.51-.18-1.12-.04-1.67-.15-3.65-.73-6.26.03-9.02,3.2-6.33,7.27-18.01,6.62-24.31-.69-6.41-7.44-5.1-18.76,2.83-24.47,7.86-5.67,19-3.49,23.94,4.84,1.02,1.72,2.02,2.58,4.07,2.47,1.9-.1,3.83.21,5.61.33,1.35-2.85,2.68-5.49,3.82-8.22.21-.51-.1-1.52-.52-1.97-2.26-2.4-4.62-4.7-6.95-7.03-12.16-12.16-24.34-24.31-36.46-36.52-1.14-1.15-1.98-1.36-3.5-.7-9.86,4.25-20.83,2.07-28.2-5.48C-.11,35.41-2.05,24.08,2.3,14.68,6.73,5.12,16.39-.59,27.08.05c17.05,1.01,28.13,19.17,21.31,35.05-.72,1.68-.57,2.59.72,3.88,14.32,14.22,28.56,28.5,42.83,42.77.51.51,1.04.99,1.15,1.09,4.58-1.49,8.73-3.34,13.07-4.16,9.75-1.84,18.66.57,26.45,6.72,1.34,1.05,2.14,1.06,3.49.05,4.63-3.47,9.34-6.83,14.09-10.12,1.35-.94,1.57-1.8,1.17-3.39-3.51-13.75,5.04-27.76,18.74-30.86,13.96-3.16,27.6,5.62,30.52,19.66,2.84,13.63-6.28,27.25-20.1,29.82-5.55,1.03-11.89.85-20.24-4.72-5.48,3.94-11.03,7.9-16.53,11.94-.41.3-.68,1.21-.58,1.75.64,3.21,1.37,6.41,2.2,9.58.15.57.9,1.28,1.47,1.39,12.4,2.24,24.81,4.42,37.24,6.49.68.11,1.79-.74,2.3-1.43,7.77-10.7,22.97-12.07,32.3-2.84,6.31,6.24,8.08,15.72,4.43,23.81-3.66,8.12-11.86,13.06-20.75,12.51-8.73-.54-16.48-6.66-18.89-15.14-.51-1.79-1.21-2.53-3.12-2.85-12.42-2.04-24.81-4.27-36.41-6.29-3.47,4.36-6.12,8.81-9.81,12.1-10.01,8.95-21.67,10.91-34.34,6.46-1.34-.47-2.2-.68-3.23.7-12.01,16.1-24.09,32.15-36.14,48.22-.24.31-.43.66-.69,1.08,3.55,4.59,6.04,9.63,7.07,15.38,3.23,17.96-9.11,35.19-27.23,37.9-.46.07-.89.28-1.34.43h-7.23Z"/>
  <ellipse class="cls-1" cx="140.1" cy="177.06" rx="16.98" ry="16.99"/>
</svg>