<svg width="1624" height="249" viewBox="0 0 1624 249" fill="none" xmlns="http://www.w3.org/2000/svg">
<path d="M386.63 159.7C386.63 166.29 385.53 172.36 383.34 177.93C381.14 183.5 377.58 188.36 372.64 192.51C367.7 196.67 361.23 199.88 353.24 202.15C345.24 204.42 335.44 205.56 323.84 205.56C315.37 205.56 307.29 204.81 299.61 203.33C291.93 201.84 285.06 199.33 279.03 195.8C272.99 192.27 268.01 187.69 264.09 182.04C260.17 176.39 257.82 169.5 257.03 161.34H302.42C302.42 164.63 303.04 167.18 304.3 168.98C305.55 170.78 307.28 172.15 309.47 173.1C311.66 174.04 314.17 174.63 317 174.86C319.82 175.1 322.72 175.21 325.7 175.21C334.01 175.21 339.46 174.27 342.05 172.39C344.64 170.51 345.93 168.16 345.93 165.33C345.93 162.04 343.73 159.53 339.34 157.8C334.95 156.08 329.42 154.47 322.76 152.98C316.09 151.49 308.92 149.89 301.24 148.16C293.56 146.44 286.38 144.04 279.72 140.99C273.05 137.93 267.53 133.82 263.14 128.64C258.75 123.47 256.55 116.8 256.55 108.65C256.55 102.06 257.61 95.95 259.73 90.3C261.85 84.65 265.33 79.8 270.2 75.72C275.06 71.64 281.45 68.47 289.37 66.19C297.29 63.92 307.05 62.78 318.65 62.78C327.12 62.78 335.19 63.6 342.88 65.25C350.56 66.9 357.34 69.45 363.23 72.89C369.11 76.34 373.81 80.77 377.34 86.18C380.87 91.59 382.63 97.98 382.63 105.35H336.53C336.53 100.8 334.88 97.63 331.59 95.82C328.3 94.02 323.28 93.11 316.54 93.11C312.15 93.11 308.66 93.43 306.07 94.05C303.48 94.68 301.52 95.43 300.19 96.28C298.86 97.14 298.03 98.08 297.72 99.1C297.4 100.12 297.25 101.02 297.25 101.8C297.25 104.15 298.54 106.31 301.13 108.27C303.72 110.23 307.13 111.96 311.36 113.44C315.59 114.93 320.33 116.3 325.59 117.56C330.84 118.82 336.13 119.99 341.47 121.09C348.53 122.5 354.84 124.23 360.4 126.26C365.96 128.3 370.67 130.85 374.51 133.9C378.35 136.96 381.33 140.57 383.45 144.72C385.57 148.88 386.63 153.86 386.63 159.66V159.7Z" fill="#242537"/>
<path d="M573.85 202.98H533.16V141.59C533.16 137.36 532.22 133.87 530.34 131.12C528.46 128.38 525.4 127 521.17 127C516.62 127 513.49 128.37 511.76 131.12C510.03 133.87 509.17 137.35 509.17 141.59V202.98H469.19V141.59C469.19 137.36 468.21 133.87 466.25 131.12C464.29 128.38 461.27 127 457.19 127C452.49 127 449.27 128.37 447.55 131.12C445.82 133.87 444.96 137.35 444.96 141.59V202.98H404.27V103.02H444.49L445.43 112.43C447.78 109.14 450.37 106.63 453.19 104.9C456.01 103.18 458.72 101.92 461.3 101.14C463.89 100.36 466.2 99.89 468.24 99.73C470.28 99.58 471.77 99.49 472.71 99.49C480.24 99.49 486.59 100.55 491.76 102.66C496.93 104.78 501.17 108.74 504.46 114.54C507.6 110.78 510.81 107.88 514.1 105.84C517.39 103.8 520.57 102.31 523.63 101.37C526.69 100.43 529.51 99.88 532.1 99.72C534.69 99.57 536.84 99.48 538.57 99.48C550.33 99.48 559.15 103.6 565.03 111.83C570.91 120.06 573.85 130.76 573.85 143.94V202.98Z" fill="#242537"/>
<path d="M654.52 138.53C654.52 133.98 653.23 130.93 650.64 129.36C648.05 127.79 644.88 127.01 641.11 127.01C638.91 127.01 636.32 127.36 633.35 128.07C630.37 128.78 628.25 130.93 627 134.54H591.95C594.61 122 600.18 113.02 608.65 107.61C617.12 102.2 627.54 99.5 639.93 99.5C650.59 99.5 659.45 100.56 666.51 102.67C673.57 104.79 679.21 108 683.44 112.31C687.67 116.62 690.65 122.07 692.38 128.66C694.1 135.25 694.97 143.09 694.97 152.18V202.98H654.99L654.05 193.72C651.23 196.66 648.29 198.99 645.23 200.69C642.17 202.4 639.19 203.59 636.29 204.29C633.39 204.99 630.6 205.41 627.94 205.57C625.27 205.72 623 205.8 621.12 205.8C617.36 205.8 613.51 205.13 609.6 203.81C605.68 202.48 602.11 200.41 598.9 197.6C595.68 194.79 593.06 191.23 591.02 186.94C588.98 182.64 587.96 177.52 587.96 171.59C587.96 163.93 590.11 158 594.43 153.78C598.74 149.56 604.19 146.4 610.78 144.29C617.37 142.18 624.58 140.89 632.42 140.42C640.26 139.95 647.63 139.71 654.53 139.71V138.53H654.52ZM628.88 170.86C628.88 173.95 629.98 175.96 632.17 176.89C634.36 177.82 637.26 178.28 640.87 178.28C642.44 178.28 644.55 178.01 647.22 177.47C649.88 176.93 652.31 176.19 654.51 175.26V162.51C651.69 162.51 648.75 162.63 645.69 162.86C642.63 163.09 639.85 163.55 637.34 164.25C634.83 164.95 632.79 165.8 631.22 166.8C629.65 167.8 628.87 169.16 628.87 170.85L628.88 170.86Z" fill="#242537"/>
<path d="M753.77 117.24C755.81 113.51 758.36 110.59 761.41 108.49C764.47 106.39 767.56 104.84 770.7 103.82C773.83 102.81 776.82 102.19 779.64 101.95C782.46 101.72 784.73 101.6 786.46 101.6C789.12 101.6 791.4 101.8 793.28 102.19C795.16 102.58 796.02 102.78 795.87 102.78V132.65C793.2 131.87 790.46 131.36 787.64 131.12C784.82 130.88 782.47 130.77 780.58 130.77C777.13 130.77 773.76 131.24 770.47 132.18C767.18 133.12 764.24 134.5 761.65 136.3C759.06 138.1 757.02 140.22 755.53 142.65C754.04 145.08 753.3 147.79 753.3 150.76V202.97H712.61V103.24H752.83L753.77 117.23V117.24Z" fill="#242537"/>
<path d="M804.34 102.78H820.8V75.03L861.49 65.15V102.78H883.36V131.95H861.49V165.11C861.49 168.09 862.59 170.52 864.78 172.4C866.97 174.28 870.58 175.22 875.6 175.22C876.69 175.22 877.95 175.18 879.36 175.1C880.77 175.02 882.1 174.83 883.36 174.51V202.73C881.79 203.35 879.83 203.91 877.48 204.38C875.13 204.85 872.69 205.2 870.19 205.44C867.68 205.68 865.25 205.83 862.9 205.91C860.55 205.99 858.51 206.03 856.78 206.03C844.08 206.03 834.91 201.91 829.26 193.68C823.61 185.45 820.79 174.2 820.79 159.93V131.94H804.33V102.77L804.34 102.78Z" fill="#242537"/>
<path d="M1037.89 202.98H995.08L986.38 175.93H943.1L934.4 202.98H891.59L936.51 65.39H992.96L1037.88 202.98H1037.89ZM979.09 143.94L964.74 99.72L950.39 143.94H979.08H979.09Z" fill="#242537"/>
<path d="M1101.16 206.03C1090.18 206.03 1080.93 204.42 1073.41 201.21C1065.89 198 1059.85 193.88 1055.3 188.86C1050.75 183.84 1047.5 178.12 1045.54 171.69C1043.58 165.26 1042.6 158.91 1042.6 152.64C1042.6 146.37 1043.58 140.29 1045.54 133.94C1047.5 127.59 1050.75 121.87 1055.3 116.77C1059.85 111.68 1065.88 107.52 1073.41 104.3C1080.94 101.09 1090.19 99.48 1101.16 99.48C1112.13 99.48 1120.29 100.77 1127.03 103.36C1133.77 105.95 1139.14 109.36 1143.14 113.59C1147.14 117.82 1150.04 122.57 1151.84 127.82C1153.64 133.08 1154.78 138.29 1155.25 143.46H1117.15C1116.68 137.34 1115.03 133.07 1112.21 130.64C1109.39 128.21 1105.7 126.99 1101.16 126.99C1094.58 126.99 1089.83 129.15 1086.93 133.46C1084.03 137.77 1082.58 144.16 1082.58 152.63C1082.58 161.1 1084.03 167.53 1086.93 171.92C1089.83 176.31 1094.57 178.51 1101.16 178.51C1105.71 178.51 1109.39 177.3 1112.21 174.86C1115.03 172.43 1116.68 168.16 1117.15 162.04H1155.25C1154.93 168.31 1153.64 174.12 1151.37 179.44C1149.1 184.77 1145.76 189.4 1141.37 193.32C1136.98 197.24 1131.45 200.34 1124.79 202.61C1118.12 204.88 1110.25 206.02 1101.15 206.02L1101.16 206.03Z" fill="#242537"/>
<path d="M1224.4 206.03C1213.42 206.03 1204.17 204.42 1196.65 201.21C1189.13 198 1183.09 193.88 1178.54 188.86C1173.99 183.84 1170.74 178.12 1168.78 171.69C1166.82 165.26 1165.84 158.91 1165.84 152.64C1165.84 146.37 1166.82 140.29 1168.78 133.94C1170.74 127.59 1173.99 121.87 1178.54 116.77C1183.09 111.68 1189.12 107.52 1196.65 104.3C1204.18 101.09 1213.43 99.48 1224.4 99.48C1235.37 99.48 1243.53 100.77 1250.27 103.36C1257.01 105.95 1262.38 109.36 1266.38 113.59C1270.38 117.82 1273.28 122.57 1275.08 127.82C1276.88 133.08 1278.02 138.29 1278.49 143.46H1240.39C1239.92 137.34 1238.27 133.07 1235.45 130.64C1232.63 128.21 1228.94 126.99 1224.4 126.99C1217.82 126.99 1213.07 129.15 1210.17 133.46C1207.27 137.77 1205.82 144.16 1205.82 152.63C1205.82 161.1 1207.27 167.53 1210.17 171.92C1213.07 176.31 1217.81 178.51 1224.4 178.51C1228.95 178.51 1232.63 177.3 1235.45 174.86C1238.27 172.43 1239.92 168.16 1240.39 162.04H1278.49C1278.17 168.31 1276.88 174.12 1274.61 179.44C1272.34 184.77 1269 189.4 1264.61 193.32C1260.22 197.24 1254.69 200.34 1248.03 202.61C1241.36 204.88 1233.49 206.02 1224.39 206.02L1224.4 206.03Z" fill="#242537"/>
<path d="M1398.22 172.4C1396.65 176.79 1394.57 181.02 1391.99 185.1C1389.4 189.18 1386.03 192.78 1381.88 195.92C1377.72 199.06 1372.74 201.56 1366.94 203.45C1361.14 205.33 1354.24 206.27 1346.24 206.27C1335.26 206.27 1326.09 204.54 1318.72 201.1C1311.35 197.65 1305.47 193.3 1301.08 188.05C1296.69 182.8 1293.59 177.04 1291.79 170.76C1289.99 164.49 1289.08 158.45 1289.08 152.65C1289.08 146.85 1289.94 140.58 1291.67 134.3C1293.39 128.03 1296.41 122.3 1300.72 117.13C1305.03 111.96 1310.83 107.69 1318.13 104.31C1325.42 100.94 1334.55 99.25 1345.53 99.25C1356.51 99.25 1365.56 100.86 1372.7 104.07C1379.83 107.29 1385.52 111.48 1389.75 116.65C1393.98 121.82 1396.96 127.59 1398.69 133.94C1400.41 140.29 1401.28 146.52 1401.28 152.64V162.28H1329.54C1329.54 167.3 1331.03 171.26 1334.01 174.16C1336.99 177.06 1340.99 178.51 1346.01 178.51C1348.83 178.51 1351.42 178.08 1353.77 177.22C1356.12 176.36 1358.16 174.75 1359.89 172.4H1398.23H1398.22ZM1346.01 127.01C1344.13 127.01 1342.32 127.17 1340.6 127.48C1338.87 127.8 1337.31 128.42 1335.9 129.36C1334.49 130.3 1333.19 131.71 1332.02 133.59C1330.85 135.47 1329.94 138.06 1329.31 141.35H1363.18C1362.55 138.06 1361.65 135.47 1360.47 133.59C1359.29 131.71 1357.92 130.3 1356.35 129.36C1354.78 128.42 1353.13 127.79 1351.41 127.48C1349.68 127.17 1347.88 127.01 1346 127.01H1346.01Z" fill="#242537"/>
<path d="M1512.29 170.99C1512.29 176.01 1511.35 180.63 1509.47 184.87C1507.59 189.1 1504.65 192.79 1500.65 195.92C1496.65 199.06 1491.55 201.53 1485.36 203.33C1479.16 205.13 1471.76 206.04 1463.13 206.04C1456.54 206.04 1450.35 205.45 1444.55 204.28C1438.75 203.1 1433.57 201.1 1429.03 198.28C1424.48 195.46 1420.72 191.78 1417.74 187.23C1414.76 182.68 1412.8 177.12 1411.86 170.53H1447.85C1448.79 173.2 1450.24 175.39 1452.2 177.12C1454.16 178.85 1457.41 179.71 1461.96 179.71C1467.92 179.71 1471.56 179.09 1472.9 177.83C1474.23 176.58 1474.9 175.4 1474.9 174.3C1474.9 172.58 1472.9 171.32 1468.9 170.54C1464.9 169.76 1459.61 168.74 1453.02 167.48C1448.47 166.7 1443.85 165.52 1439.14 163.95C1434.44 162.38 1430.16 160.35 1426.32 157.83C1422.48 155.32 1419.34 152.27 1416.91 148.66C1414.48 145.05 1413.26 140.82 1413.26 135.96C1413.26 131.1 1414.08 126.24 1415.73 121.85C1417.38 117.46 1420.08 113.62 1423.84 110.33C1427.6 107.04 1432.5 104.41 1438.54 102.45C1444.58 100.49 1451.91 99.51 1460.53 99.51C1473.54 99.51 1484.44 102.22 1493.22 107.62C1502 113.03 1507.41 122.24 1509.45 135.26H1472.99C1472.05 132.59 1470.91 130.44 1469.58 128.79C1468.25 127.14 1465.23 126.32 1460.53 126.32C1458.18 126.32 1456.33 126.52 1455 126.91C1453.67 127.3 1452.68 127.81 1452.06 128.44C1451.43 129.07 1451.04 129.66 1450.88 130.2C1450.72 130.75 1450.64 131.26 1450.64 131.73C1450.64 133.3 1451.97 134.67 1454.64 135.85C1457.31 137.03 1460.4 138.01 1463.93 138.79C1467.46 139.58 1470.99 140.2 1474.51 140.67C1478.04 141.14 1480.66 141.53 1482.39 141.85C1491.33 143.42 1498.54 146.55 1504.03 151.26C1509.52 155.96 1512.26 162.55 1512.26 171.02L1512.29 170.99Z" fill="#242537"/>
<path d="M1623.3 170.99C1623.3 176.01 1622.36 180.63 1620.48 184.87C1618.6 189.1 1615.66 192.79 1611.66 195.92C1607.66 199.06 1602.56 201.53 1596.37 203.33C1590.17 205.13 1582.77 206.04 1574.14 206.04C1567.55 206.04 1561.36 205.45 1555.56 204.28C1549.76 203.1 1544.58 201.1 1540.04 198.28C1535.49 195.46 1531.73 191.78 1528.75 187.23C1525.77 182.68 1523.81 177.12 1522.87 170.53H1558.86C1559.8 173.2 1561.25 175.39 1563.21 177.12C1565.17 178.85 1568.42 179.71 1572.97 179.71C1578.93 179.71 1582.57 179.09 1583.91 177.83C1585.24 176.58 1585.91 175.4 1585.91 174.3C1585.91 172.58 1583.91 171.32 1579.91 170.54C1575.91 169.76 1570.62 168.74 1564.03 167.48C1559.48 166.7 1554.86 165.52 1550.15 163.95C1545.45 162.38 1541.17 160.35 1537.33 157.83C1533.49 155.32 1530.35 152.27 1527.92 148.66C1525.49 145.05 1524.27 140.82 1524.27 135.96C1524.27 131.1 1525.09 126.24 1526.74 121.85C1528.39 117.46 1531.09 113.62 1534.85 110.33C1538.61 107.04 1543.51 104.41 1549.55 102.45C1555.59 100.49 1562.92 99.51 1571.54 99.51C1584.55 99.51 1595.45 102.22 1604.23 107.62C1613.01 113.03 1618.42 122.24 1620.46 135.26H1584C1583.06 132.59 1581.92 130.44 1580.59 128.79C1579.26 127.14 1576.24 126.32 1571.54 126.32C1569.19 126.32 1567.34 126.52 1566.01 126.91C1564.68 127.3 1563.69 127.81 1563.07 128.44C1562.44 129.07 1562.05 129.66 1561.89 130.2C1561.73 130.75 1561.65 131.26 1561.65 131.73C1561.65 133.3 1562.98 134.67 1565.65 135.85C1568.32 137.03 1571.41 138.01 1574.94 138.79C1578.47 139.58 1582 140.2 1585.52 140.67C1589.05 141.14 1591.67 141.53 1593.4 141.85C1602.34 143.42 1609.55 146.55 1615.04 151.26C1620.53 155.96 1623.27 162.55 1623.27 171.02L1623.3 170.99Z" fill="#242537"/>
<path d="M163.56 49.6799H55.79C38.2329 49.6799 24 63.9128 24 81.4699V186.01C24 203.567 38.2329 217.8 55.79 217.8H163.56C181.117 217.8 195.35 203.567 195.35 186.01V81.4699C195.35 63.9128 181.117 49.6799 163.56 49.6799Z" fill="#2E7CE4"/>
<path d="M31.78 248C27.64 246.56 23.24 245.63 19.42 243.59C6.46997 236.69 0.0699716 221.13 3.90997 206.9C7.76997 192.56 20.94 182.39 35.63 182.81C39.5 182.92 43.36 184.03 47.18 184.87C48.3 185.12 49 185.38 49.83 184.27C62.16 167.79 74.54 151.34 87.01 134.73C83.24 130.08 80.57 124.93 79.46 119.04C79.39 118.66 78.76 118.27 78.32 118.11C77.81 117.93 77.19 118.07 76.65 117.96C72.99 117.23 70.39 117.99 67.62 121.16C61.28 128.43 49.58 127.79 43.29 120.47C36.87 113.02 38.18 101.69 46.12 95.97C53.99 90.3 65.14 92.48 70.09 100.82C71.11 102.55 72.11 103.4 74.16 103.29C76.07 103.19 78 103.5 79.77 103.62C81.12 100.77 82.45 98.12 83.59 95.4C83.8 94.89 83.49 93.88 83.06 93.43C80.8 91.03 78.43 88.73 76.1 86.4C63.92 74.22 51.73 62.07 39.6 49.85C38.46 48.7 37.62 48.49 36.1 49.15C26.23 53.41 15.24 51.22 7.86996 43.67C0.629963 36.24 -1.32004 24.9 3.03996 15.49C7.46996 5.91999 17.14 0.209971 27.84 0.849971C44.91 1.85997 56 20.03 49.18 35.93C48.46 37.61 48.61 38.53 49.91 39.81C64.24 54.04 78.5 68.34 92.79 82.62C93.3 83.13 93.83 83.61 93.94 83.71C98.52 82.22 102.68 80.37 107.03 79.54C116.79 77.69 125.71 80.11 133.51 86.27C134.85 87.32 135.66 87.33 137 86.32C141.63 82.85 146.35 79.48 151.11 76.19C152.46 75.25 152.69 74.39 152.28 72.8C148.76 59.04 157.33 45.02 171.04 41.91C185.02 38.75 198.67 47.54 201.6 61.59C204.45 75.23 195.31 88.87 181.48 91.44C175.92 92.47 169.57 92.29 161.22 86.71C155.73 90.65 150.17 94.62 144.67 98.66C144.26 98.96 143.98 99.87 144.09 100.41C144.74 103.62 145.46 106.83 146.29 110C146.44 110.57 147.19 111.29 147.76 111.39C160.18 113.63 172.6 115.82 185.05 117.89C185.73 118 186.84 117.15 187.35 116.46C195.12 105.75 210.35 104.38 219.69 113.62C226.01 119.87 227.77 129.35 224.12 137.45C220.46 145.57 212.25 150.52 203.35 149.97C194.61 149.43 186.86 143.31 184.44 134.81C183.93 133.02 183.23 132.28 181.31 131.96C168.87 129.91 156.47 127.69 144.86 125.66C141.39 130.02 138.73 134.47 135.04 137.77C125.02 146.72 113.35 148.69 100.66 144.23C99.32 143.76 98.45 143.55 97.43 144.93C85.41 161.05 73.32 177.11 61.25 193.19C61.01 193.5 60.82 193.85 60.56 194.27C64.11 198.87 66.6 203.91 67.64 209.66C70.88 227.63 58.51 244.88 40.38 247.59C39.92 247.66 39.48 247.87 39.04 248.02H31.8L31.78 248Z" fill="#242537"/>
<path d="M141 195C150.389 195 158 187.389 158 178C158 168.611 150.389 161 141 161C131.611 161 124 168.611 124 178C124 187.389 131.611 195 141 195Z" fill="#242537"/>
</svg>
