<?xml version="1.0" standalone="no"?>
<!DOCTYPE svg PUBLIC "-//W3C//DTD SVG 20010904//EN"
 "http://www.w3.org/TR/2001/REC-SVG-20010904/DTD/svg10.dtd">
<svg version="1.0" xmlns="http://www.w3.org/2000/svg"
 width="16.000000pt" height="16.000000pt" viewBox="0 0 16.000000 16.000000"
 preserveAspectRatio="xMidYMid meet">

<g transform="translate(0.000000,16.000000) scale(0.100000,-0.100000)"
fill="#000000" stroke="none">
<path d="M14 148 c-4 -6 -2 -14 4 -16 16 -5 15 -85 0 -100 -9 -9 -9 -15 0 -24
9 -9 15 -9 24 0 7 7 24 12 39 12 20 0 34 9 50 32 16 21 19 33 11 36 -7 2 -12
12 -12 23 0 16 -7 19 -45 19 -33 0 -45 4 -45 15 0 18 -16 20 -26 3z"/>
</g>
</svg>
